<?xml version="1.0" encoding="UTF-8" standalone="yes"?>
<svg width="437" height="437" viewBox="0 0 60 62" fill="none" version="1.2" baseProfile="tiny-ps" xmlns="http://www.w3.org/2000/svg">
    <title>Bankstmtconverter.com</title>
    <path d="M32.9219 8.84226C32.9219 5.86885 36.5379 4.40339 38.608 6.53787L57.6821 26.2056C58.9383 27.5009 59.6408 29.2344 59.6408 31.0388V53.8041C59.6408 56.7775 56.0248 58.243 53.9547 56.1085L34.8806 36.4407C33.6244 35.1454 32.9219 33.4119 32.9219 31.6075V8.84226Z" fill="#a8ccb4"/>
    <path d="M16.3633 8.19578C16.3633 5.22237 19.9793 3.75691 22.0494 5.89139L40.842 25.2689C42.2788 26.7503 43.0823 28.733 43.0823 30.7967V53.1576C43.0823 56.131 39.4662 57.5965 37.3961 55.462L18.322 35.7942C17.0658 34.4989 16.3633 32.7654 16.3633 30.9611V8.19578Z" fill="#6f967c"/>
    <path d="M0.359375 8.84226C0.359375 5.86885 3.97542 4.40339 6.04548 6.53787L25.1196 26.2056C26.3758 27.5009 27.0783 29.2344 27.0783 31.0388V53.8041C27.0783 56.7775 23.4623 58.243 21.3922 56.1085L2.3181 36.4407C1.06191 35.1454 0.359375 33.4119 0.359375 31.6075V8.84226Z" fill="#457d58"/>
</svg>
